<?xml version="1.0" standalone="no"?>
<!DOCTYPE svg PUBLIC "-//W3C//DTD SVG 20010904//EN"
 "http://www.w3.org/TR/2001/REC-SVG-20010904/DTD/svg10.dtd">
<svg version="1.0" xmlns="http://www.w3.org/2000/svg"
 width="500.000000pt" height="500.000000pt" viewBox="0 0 500.000000 500.000000"
 preserveAspectRatio="xMidYMid meet">

<g transform="translate(0.000000,500.000000) scale(0.100000,-0.100000)"
fill="#000000" stroke="none">
<path d="M870 4961 c0 -22 3 -41 8 -43 4 -1 3 -475 -1 -1053 -5 -577 -5 -1641
-1 -2363 l6 -1312 418 0 417 0 64 -29 c35 -16 114 -45 174 -65 350 -117 613
-121 976 -16 74 22 173 55 219 75 l84 35 448 0 448 0 0 1288 c0 708 -3 1790
-7 2405 l-6 1117 -1624 0 -1623 0 0 -39z m3168 -703 l2 -648 -1540 0 -1540 0
0 643 c0 354 3 647 7 650 3 4 695 6 1537 5 l1531 -3 3 -647z m9 -1260 c-4
-232 -7 -938 -7 -1570 l0 -1148 -411 0 -411 0 -139 -56 c-184 -73 -343 -113
-491 -123 -171 -11 -344 2 -469 35 -104 27 -304 102 -346 130 -19 12 -90 14
-418 14 l-395 0 0 1570 0 1570 1547 0 1546 0 -6 -422z"/>
<path d="M1184 4786 c-3 -7 -4 -191 -2 -407 3 -354 5 -398 21 -434 23 -51 61
-91 112 -118 38 -21 52 -22 325 -22 l285 0 46 27 c25 15 56 39 68 52 l24 25
19 -25 c11 -13 43 -37 71 -52 l52 -27 272 -3 c293 -3 320 0 395 47 63 40 89
92 94 190 l5 76 -202 215 c-110 118 -205 217 -211 219 -5 1 -18 -5 -28 -14
-19 -17 -16 -21 88 -134 59 -64 116 -125 128 -136 11 -11 54 -57 94 -103 l73
-82 -7 -53 c-9 -63 -36 -110 -84 -142 l-37 -25 -286 0 -286 0 -41 30 c-42 30
-64 63 -76 113 -5 22 -12 27 -35 27 -28 0 -41 -15 -41 -46 0 -26 -45 -83 -81
-104 -34 -19 -53 -20 -299 -20 -252 0 -264 1 -302 22 -21 12 -49 38 -61 58
-22 34 -22 43 -25 418 l-3 382 178 -2 178 -3 3 -332 2 -333 30 0 30 0 2 333 3
332 173 3 172 2 0 30 0 30 -415 0 c-345 0 -417 -2 -421 -14z"/>
<path d="M2230 4791 c-84 -15 -170 -88 -190 -161 -6 -19 -10 -67 -10 -107 l0
-71 143 -153 c78 -84 164 -177 190 -206 47 -51 49 -52 73 -37 l24 16 -53 61
c-28 34 -112 125 -185 202 l-133 140 4 72 c6 88 26 125 87 161 l45 27 272 0
c269 0 273 0 316 -24 47 -26 76 -65 86 -115 6 -26 12 -32 38 -34 28 -3 32 0
38 30 11 53 44 97 89 121 39 21 52 22 296 22 250 0 256 0 297 -24 22 -13 52
-38 65 -55 22 -30 23 -39 26 -248 l4 -218 -181 0 -181 0 0 190 0 190 -30 0
-30 0 0 -355 0 -355 -177 -2 -178 -3 -3 -27 -3 -28 210 0 211 0 0 165 0 165
210 0 210 0 0 243 c0 270 -5 291 -71 354 -68 63 -95 68 -384 68 -292 0 -299
-1 -378 -74 l-44 -40 -22 29 c-12 17 -45 42 -74 57 l-52 28 -260 1 c-143 1
-276 -1 -295 -5z"/>
<path d="M1200 3005 l0 -265 60 0 60 0 0 265 0 265 -60 0 -60 0 0 -265z"/>
<path d="M1557 3259 c-40 -24 -47 -59 -47 -252 0 -172 1 -186 21 -211 41 -53
59 -56 304 -56 l225 0 0 60 0 60 -208 0 c-148 0 -211 3 -220 12 -8 8 -12 53
-12 138 0 85 4 130 12 138 9 9 72 12 220 12 l208 0 0 55 0 55 -242 0 c-147 0
-250 -5 -261 -11z"/>
<path d="M2273 3244 l-33 -25 0 -240 0 -239 60 0 60 0 0 191 c0 112 4 198 10
210 10 18 24 19 279 19 236 0 270 -2 275 -16 3 -9 6 -103 6 -210 l0 -194 55 0
55 0 0 239 0 240 -33 25 -34 26 -334 0 -334 0 -32 -26z"/>
<path d="M3259 3241 l-29 -29 0 -195 c0 -182 1 -196 21 -221 41 -53 59 -56
304 -56 l225 0 0 60 0 60 -204 0 c-173 0 -207 2 -220 16 -13 12 -16 40 -16
138 0 81 4 126 12 134 9 9 72 12 220 12 l208 0 0 55 0 55 -246 0 -246 0 -29
-29z"/>
<path d="M2580 2880 l0 -140 60 0 60 0 0 140 0 140 -60 0 -60 0 0 -140z"/>
<path d="M1539 2577 c-91 -31 -142 -74 -181 -155 -31 -64 -33 -72 -32 -177 1
-158 34 -230 172 -377 39 -42 43 -31 -49 -148 -156 -199 -245 -358 -280 -499
-18 -71 -21 -105 -17 -210 6 -149 28 -222 101 -323 135 -190 336 -253 610
-192 l68 16 43 -40 c165 -152 427 -206 711 -147 88 18 255 100 318 156 l48 42
182 1 c171 2 186 3 248 28 89 35 133 65 200 135 66 68 89 105 126 199 24 62
27 82 27 199 1 102 -3 142 -18 185 -35 103 -199 357 -335 520 -39 47 -71 90
-71 95 0 6 22 36 49 68 89 107 139 244 127 347 -13 107 -101 227 -203 275 -68
33 -191 35 -277 5 -55 -19 -240 -123 -252 -141 -10 -17 -32 -9 -75 31 -67 62
-190 119 -271 127 -130 12 -232 -28 -359 -138 l-59 -51 -67 51 c-86 65 -175
108 -261 126 -93 20 -146 18 -223 -8z m1806 -38 c64 -24 134 -89 166 -156 29
-61 35 -138 15 -209 -33 -112 -140 -264 -168 -236 -9 9 -4 20 23 50 94 99 135
254 97 364 -21 61 -81 124 -134 142 -159 54 -319 -26 -747 -372 -55 -44 -94
-59 -99 -37 -4 13 288 253 387 318 230 152 335 183 460 136z m-1528 -19 c57
-20 141 -69 203 -119 18 -15 22 -23 14 -31 -8 -8 -31 2 -87 38 -186 121 -356
125 -468 10 -46 -48 -63 -94 -63 -173 -1 -119 56 -214 248 -414 67 -69 152
-161 190 -204 65 -73 68 -79 57 -104 -14 -31 -5 -39 -116 100 -43 55 -103 120
-133 145 -89 76 -231 248 -266 321 -27 59 -30 76 -30 157 -1 82 3 97 29 149
73 141 236 189 422 125z m818 -13 c39 -20 90 -54 115 -75 43 -38 44 -39 23
-51 -19 -10 -32 -5 -99 39 -88 58 -125 70 -212 70 -114 0 -182 -37 -362 -198
-85 -77 -188 -176 -229 -221 -59 -66 -76 -79 -87 -70 -8 6 -14 15 -14 20 0 17
296 312 380 378 174 138 206 152 335 147 70 -2 89 -7 150 -39z m704 -119 c29
-18 61 -86 61 -131 0 -55 -36 -140 -82 -192 -41 -46 -41 -46 -61 -27 -19 20
-19 20 36 85 64 75 76 115 54 170 -31 74 -117 87 -219 34 -81 -42 -276 -178
-381 -265 -127 -105 -116 -98 -134 -80 -14 14 -5 24 92 99 284 222 400 299
480 320 41 11 128 4 154 -13z m-1531 -13 c29 -13 73 -38 98 -56 43 -30 45 -32
28 -50 -16 -18 -17 -18 -44 1 -60 43 -155 80 -203 80 -40 0 -54 -5 -78 -29
-25 -25 -29 -37 -29 -84 0 -42 6 -63 26 -93 28 -41 120 -152 141 -169 7 -5 26
-28 43 -50 17 -22 59 -69 93 -105 35 -36 80 -87 101 -113 37 -46 38 -49 20
-68 -17 -19 -18 -19 -33 5 -9 14 -77 88 -151 166 -225 235 -239 253 -272 318
-52 105 -38 208 35 252 48 30 156 27 225 -5z m724 11 c25 -7 66 -29 92 -49 38
-28 43 -37 32 -46 -11 -9 -24 -5 -61 18 -57 36 -116 47 -172 32 -76 -21 -333
-233 -460 -381 -51 -58 -71 -76 -80 -68 -7 6 -13 16 -13 22 0 23 271 289 415
408 53 44 124 74 181 77 11 1 41 -5 66 -13z m758 -96 c30 -30 23 -78 -17 -118
-7 -8 -25 -29 -40 -48 l-26 -35 -31 29 c-17 15 -53 45 -79 66 l-48 38 22 16
c101 71 181 90 219 52z m-1505 -19 c108 -52 107 -46 22 -133 l-74 -77 -52 65
c-55 69 -70 124 -42 158 21 25 79 19 146 -13z m765 7 c24 -13 43 -27 44 -33 0
-5 -33 -36 -72 -68 l-73 -59 -37 34 c-20 18 -48 41 -61 50 -24 17 -24 18 -7
37 26 29 96 61 131 61 17 0 50 -10 75 -22z m-216 -122 c23 -19 55 -46 71 -60
17 -15 71 -60 120 -101 153 -124 348 -318 343 -340 -2 -11 -8 -20 -15 -20 -6
0 -92 77 -190 170 -165 157 -341 315 -387 348 -19 14 -15 37 6 37 6 0 29 -15
52 -34z m767 -39 c210 -184 440 -458 579 -687 99 -163 104 -182 105 -340 0
-130 -1 -138 -31 -207 -64 -147 -157 -236 -301 -289 -71 -26 -90 -29 -205 -29
-69 0 -130 3 -134 7 -4 5 1 17 11 28 16 18 31 20 119 20 216 0 363 77 440 230
44 89 60 165 53 260 -11 147 -66 262 -240 495 -120 162 -183 233 -364 413 -84
84 -151 157 -148 162 13 20 35 8 116 -63z m-28 -179 c193 -192 304 -324 427
-508 126 -188 135 -212 135 -350 0 -97 -4 -122 -22 -162 -31 -67 -88 -125
-157 -161 -52 -26 -75 -31 -154 -35 -88 -4 -94 -3 -90 14 2 15 18 22 77 31
133 22 222 86 276 198 24 49 29 72 29 131 0 81 -14 115 -111 263 -176 268
-319 441 -536 650 -63 60 -84 87 -75 93 7 4 16 8 20 8 4 0 86 -78 181 -172z
m-815 100 c95 -77 270 -237 421 -385 101 -99 113 -114 105 -133 -9 -20 -26 -6
-209 175 -110 109 -243 232 -295 274 -138 110 -131 103 -118 118 6 7 13 13 15
13 3 0 39 -28 81 -62z m756 -160 c7 -12 -3 -33 -45 -92 -30 -42 -57 -76 -61
-76 -4 0 -60 51 -124 114 l-116 114 77 61 78 61 90 -83 c50 -46 95 -90 101
-99z m-832 110 c37 -29 67 -58 66 -65 -2 -6 -46 -59 -98 -117 l-95 -106 -35
38 c-19 21 -47 53 -63 71 l-27 33 22 31 c23 34 148 167 156 167 2 0 36 -24 74
-52z m133 -109 c4 -6 -11 -31 -34 -57 -198 -225 -363 -437 -418 -537 -65 -116
-82 -283 -44 -420 11 -38 19 -71 17 -72 -1 -1 -13 -4 -26 -5 -28 -4 -33 13
-51 148 -16 125 -1 236 47 331 67 136 234 354 424 556 25 27 47 53 48 58 5 12
29 11 37 -2z m755 -74 c0 -16 -24 -55 -110 -177 -89 -127 -123 -183 -160 -268
-53 -122 -64 -167 -65 -276 0 -96 1 -103 38 -178 21 -42 52 -93 69 -112 25
-28 28 -37 18 -49 -21 -26 -37 -17 -79 45 -58 87 -83 161 -89 259 -7 128 11
208 75 336 63 123 66 129 179 287 44 62 86 123 93 136 12 23 31 22 31 -3z
m-687 -87 c-22 -29 -67 -83 -100 -119 -54 -59 -148 -179 -245 -313 -76 -104
-103 -231 -74 -341 15 -60 15 -60 -8 -84 l-24 -24 -16 53 c-18 62 -21 187 -5
245 29 109 153 288 365 531 121 139 116 134 133 118 12 -11 8 -21 -26 -66z
m-783 41 c0 -5 -45 -69 -100 -142 -109 -143 -206 -324 -234 -433 -22 -86 -21
-217 3 -293 53 -171 216 -307 381 -319 138 -10 305 43 420 134 68 53 96 92
136 189 25 62 28 82 29 175 0 94 -4 117 -34 208 -25 74 -32 105 -24 113 8 8
18 -2 37 -39 69 -137 88 -326 46 -452 -48 -144 -134 -241 -275 -311 -106 -52
-202 -72 -336 -67 -98 3 -110 6 -182 41 -178 88 -289 296 -273 512 14 189 90
355 275 593 81 106 96 120 112 111 11 -5 19 -14 19 -20z m1140 -307 c0 -7 -16
-45 -36 -84 -57 -113 -79 -278 -53 -400 16 -72 62 -172 104 -224 19 -23 35
-45 35 -49 0 -14 -133 -67 -206 -82 -97 -20 -203 -8 -294 33 -80 36 -89 47
-63 82 126 171 137 432 27 649 l-37 71 37 44 c21 23 76 89 124 146 l86 103
138 -138 c76 -76 138 -144 138 -151z m436 231 c-3 -7 -30 -45 -60 -85 -49 -66
-108 -161 -187 -304 -39 -69 -56 -172 -40 -244 10 -50 23 -77 63 -132 10 -13
9 -23 -3 -50 l-16 -32 -36 49 c-54 74 -70 131 -65 229 8 134 56 233 263 539
47 69 51 73 68 59 10 -9 15 -22 13 -29z m-1478 -25 c2 -8 -16 -39 -40 -69 -59
-75 -193 -299 -217 -364 -61 -163 -39 -308 62 -409 82 -81 155 -104 272 -86
234 36 372 233 307 439 -19 59 -20 65 -5 88 l16 25 13 -24 c44 -85 44 -257 1
-349 -32 -66 -112 -150 -171 -178 -69 -34 -167 -55 -251 -55 -71 -1 -87 3
-141 31 -76 40 -146 116 -173 189 -26 69 -28 205 -5 285 31 104 142 293 253
432 53 65 73 77 79 45z m1572 -78 c64 -80 210 -298 247 -371 23 -44 28 -65 27
-119 -1 -36 -9 -81 -17 -100 -39 -89 -138 -161 -241 -176 l-49 -7 7 34 c4 19
9 88 12 154 9 183 -24 302 -120 443 -20 30 -33 59 -29 65 10 19 107 146 109
144 1 -1 25 -31 54 -67z m-1487 -14 c20 -24 45 -59 57 -79 l21 -35 -38 -59
c-47 -73 -78 -139 -100 -212 -22 -73 -21 -233 1 -324 9 -38 16 -72 16 -78 0
-17 -75 -9 -125 15 -82 38 -145 125 -160 222 -11 64 11 152 64 259 63 127 199
332 222 334 4 1 23 -19 42 -43z m1325 -173 c51 -80 91 -174 101 -243 50 -313
-86 -575 -371 -717 -191 -95 -423 -115 -612 -52 -63 21 -169 80 -220 123 -28
23 -28 24 -8 35 17 9 35 2 111 -43 241 -142 508 -138 763 13 95 56 167 129
229 230 58 96 74 159 74 291 -1 99 -4 125 -27 189 -15 41 -43 100 -63 132 -20
33 -33 64 -29 73 10 25 20 19 52 -31z m-68 -176 c55 -140 52 -262 -7 -397 -32
-71 -77 -126 -155 -188 -108 -85 -203 -122 -359 -138 -115 -11 -309 39 -384
100 -20 16 -20 16 9 40 l29 24 46 -29 c145 -93 371 -95 546 -6 65 32 167 123
203 180 51 81 65 143 60 261 -4 71 -12 119 -28 159 -21 55 -21 95 -1 82 5 -3
24 -42 41 -88z m-71 -44 c15 -48 26 -176 17 -200 -7 -15 -11 -12 -27 19 -11
21 -22 58 -25 82 -7 49 3 136 15 136 4 0 13 -17 20 -37z m-924 -106 c0 -85
-17 -139 -37 -119 -15 15 -14 140 2 186 19 59 35 29 35 -67z"/>
</g>
</svg>
