<?xml version="1.0" standalone="no"?>
<!DOCTYPE svg PUBLIC "-//W3C//DTD SVG 20010904//EN"
 "http://www.w3.org/TR/2001/REC-SVG-20010904/DTD/svg10.dtd">
<svg version="1.0" xmlns="http://www.w3.org/2000/svg"
 width="250.000000pt" height="87.000000pt" viewBox="0 0 250.000000 87.000000"
 preserveAspectRatio="xMidYMid meet">

<g transform="translate(0.000000,87.000000) scale(0.100000,-0.100000)"
fill="#000000" stroke="none">
<path d="M298 769 l-3 -100 -66 -3 c-129 -4 -213 -78 -226 -197 -11 -107 36
-191 125 -226 50 -19 191 -24 265 -10 l37 8 0 314 0 315 -65 0 -64 0 -3 -101z
m-3 -324 l0 -110 -53 0 c-66 1 -92 24 -99 89 -10 87 33 138 112 133 l40 -2 0
-110z"/>
<path d="M510 800 l0 -70 70 0 70 0 0 70 0 70 -70 0 -70 0 0 -70z"/>
<path d="M825 659 c-87 -20 -95 -26 -95 -80 0 -27 2 -49 4 -49 3 0 17 5 33 11
15 6 52 15 80 20 62 12 93 0 93 -35 0 -20 -7 -24 -68 -35 -115 -21 -165 -65
-165 -147 0 -106 76 -137 286 -117 l67 6 0 182 c0 169 -2 184 -20 208 -34 43
-121 57 -215 36z m125 -293 c0 -42 -1 -44 -35 -50 -66 -13 -108 20 -79 62 14
21 35 28 87 31 26 1 27 -1 27 -43z"/>
<path d="M1260 663 c-14 -2 -49 -8 -77 -14 l-53 -10 0 -205 0 -204 70 0 70 0
2 163 3 162 47 3 c71 5 78 -11 78 -185 l0 -143 66 0 65 0 -3 181 -3 181 -32
28 c-49 44 -133 59 -233 43z"/>
<path d="M1810 663 c-148 -25 -229 -108 -230 -237 0 -81 28 -138 85 -172 46
-27 116 -36 168 -21 25 7 27 5 27 -22 0 -40 -37 -80 -84 -91 -41 -9 -131 1
-166 20 -19 10 -20 8 -20 -50 0 -56 2 -61 28 -72 15 -7 68 -12 117 -13 116 0
174 26 220 100 l30 48 3 199 c3 167 6 198 18 198 15 0 60 87 51 96 -16 16
-185 27 -247 17z m50 -213 c0 -109 0 -110 -25 -116 -54 -13 -114 25 -117 75
-5 96 34 149 115 150 l27 1 0 -110z"/>
<path d="M2196 656 c-94 -35 -138 -103 -138 -213 -1 -104 41 -176 119 -209 42
-18 151 -18 195 0 153 64 172 320 30 403 -54 32 -149 40 -206 19z m119 -102
c25 -10 45 -59 45 -111 0 -59 -17 -94 -54 -112 -25 -12 -33 -11 -61 2 -85 41
-63 227 26 227 15 0 35 -3 44 -6z"/>
<path d="M508 438 c-3 -252 -7 -265 -82 -315 l-40 -26 61 -30 62 -31 40 28
c27 19 50 48 68 85 28 55 28 59 32 284 l3 227 -70 0 -71 0 -3 -222z"/>
</g>
</svg>
